<svg width="290" height="248" viewBox="0 0 290 248" fill="none" xmlns="http://www.w3.org/2000/svg">
<g clip-path="url(#clip0)">
<path d="M258.171 198.112C258.206 193.576 256.19 189.281 252.441 186.015C248.693 182.779 243.671 180.994 238.366 180.994H19.1683V214.898H237.977C249.011 214.898 258.065 207.367 258.171 198.112Z" fill="#1A92E9"/>
<path d="M8.84146 242.117H237.835C266.376 242.117 289.894 222.489 290 198.082C290.071 173.675 266.871 153.775 238.366 153.775H8.84146C3.96098 153.775 0 157.162 0 161.336V164.36C0 168.534 3.96098 171.921 8.84146 171.921H238.366C248.091 171.921 256.791 175.853 262.344 181.962C266.447 186.438 268.851 192.094 268.781 198.203C268.71 204.1 266.305 209.514 262.344 213.839C256.685 220.009 247.809 223.971 237.977 223.971H8.84146C3.96098 223.971 0 227.358 0 231.532V234.556C0 238.73 3.96098 242.117 8.84146 242.117Z" fill="#1A92E9"/>
<path d="M106.522 144.702C107.901 144.823 160.172 144.823 161.551 144.702C185.388 142.434 204.061 120.99 204.061 94.86C204.061 67.2171 183.16 44.8063 157.378 44.8063C151.861 44.8063 146.556 45.8346 141.64 47.7098C140.049 48.3146 138.387 48.7381 136.689 48.9498C136.654 47.8912 136.689 46.7722 136.83 45.502C137.644 36.5195 143.514 27.5976 152.321 22.6073C154.69 21.2463 155.716 18.5849 154.23 16.4073C152.851 14.381 149.385 13.4132 146.98 14.7741C134.142 22.0629 126.398 34.6444 126.185 47.619C121.34 45.8044 116.141 44.8063 110.73 44.8063C84.9488 44.8063 64.0472 67.2171 64.0472 94.86C64.0122 120.99 82.6854 142.434 106.522 144.702Z" fill="#1A92E9"/>
<path d="M113.418 39.7251C117.91 40.1485 121.765 36.9124 121.234 33.0714C120.067 24.0587 113.984 9.20897 87.1768 5.94263C82.65 5.39824 78.689 8.63433 79.1488 12.5358C80.2451 21.7904 86.222 37.0938 113.418 39.7251Z" fill="#1A92E9"/>
</g>
<defs>
<clipPath id="clip0">
<rect width="290" height="248" fill="white"/>
</clipPath>
</defs>
</svg>
