<svg width="857" height="320" viewBox="0 0 857 320" fill="none" xmlns="http://www.w3.org/2000/svg">
<path d="M40.64 154H16.8C14.7733 154 13.28 153.573 12.32 152.72C11.4667 151.76 11.04 150.267 11.04 148.24V44.56C11.04 42.5333 11.4667 41.0933 12.32 40.24C13.28 39.28 14.7733 38.8 16.8 38.8H42.56C44.2667 38.8 45.6533 39.1733 46.72 39.92C47.8933 40.6667 48.96 41.8933 49.92 43.6L64.32 69.68C64.8533 70.64 65.28 71.3333 65.6 71.76C66.0267 72.1867 66.56 72.4 67.2 72.4H68.64C69.28 72.4 69.76 72.1867 70.08 71.76C70.5067 71.3333 70.9867 70.64 71.52 69.68L85.76 43.6C86.72 41.8933 87.7333 40.6667 88.8 39.92C89.9733 39.1733 91.4133 38.8 93.12 38.8H119.04C121.067 38.8 122.507 39.28 123.36 40.24C124.32 41.0933 124.8 42.5333 124.8 44.56V148.24C124.8 150.267 124.32 151.76 123.36 152.72C122.507 153.573 121.067 154 119.04 154H94.4C92.3733 154 90.88 153.573 89.92 152.72C89.0667 151.76 88.64 150.267 88.64 148.24V91.92L79.2 109.36C78.24 111.173 77.0667 112.507 75.68 113.36C74.4 114.107 72.7467 114.48 70.72 114.48H64.32C62.2933 114.48 60.5867 114.107 59.2 113.36C57.92 112.507 56.8 111.173 55.84 109.36L46.4 91.92V148.24C46.4 150.267 45.92 151.76 44.96 152.72C44.1067 153.573 42.6667 154 40.64 154ZM244.901 123.76C244.901 128.667 244.155 133.147 242.661 137.2C241.275 141.147 238.715 144.56 234.981 147.44C231.355 150.213 226.341 152.4 219.941 154C213.541 155.6 205.381 156.4 195.461 156.4C185.541 156.4 177.381 155.6 170.981 154C164.581 152.4 159.515 150.213 155.781 147.44C152.155 144.56 149.595 141.147 148.101 137.2C146.715 133.147 146.021 128.667 146.021 123.76V44.56C146.021 42.5333 146.448 41.0933 147.301 40.24C148.261 39.28 149.755 38.8 151.781 38.8H176.901C178.928 38.8 180.368 39.28 181.221 40.24C182.181 41.0933 182.661 42.5333 182.661 44.56V117.52C182.661 119.653 183.461 121.467 185.061 122.96C186.661 124.347 190.235 125.04 195.781 125.04C201.435 125.04 205.061 124.347 206.661 122.96C208.261 121.467 209.061 119.653 209.061 117.52V44.56C209.061 42.5333 209.488 41.0933 210.341 40.24C211.301 39.28 212.795 38.8 214.821 38.8H239.141C241.168 38.8 242.608 39.28 243.461 40.24C244.421 41.0933 244.901 42.5333 244.901 44.56V123.76ZM296.756 154H271.956C269.93 154 268.436 153.573 267.476 152.72C266.623 151.76 266.196 150.267 266.196 148.24V44.56C266.196 42.5333 266.623 41.0933 267.476 40.24C268.436 39.28 269.93 38.8 271.956 38.8H296.756C298.783 38.8 300.223 39.28 301.076 40.24C302.036 41.0933 302.516 42.5333 302.516 44.56V81.36H308.916L325.396 44.08C326.143 42.16 327.156 40.8267 328.436 40.08C329.716 39.2267 331.37 38.8 333.396 38.8H358.036C359.85 38.8 361.076 39.28 361.716 40.24C362.356 41.0933 362.303 42.3733 361.556 44.08L345.236 81.36C351.21 81.68 355.956 83.8133 359.476 87.76C363.103 91.6 364.916 96.72 364.916 103.12V148.24C364.916 150.267 364.436 151.76 363.476 152.72C362.623 153.573 361.183 154 359.156 154H334.516C332.49 154 330.996 153.573 330.036 152.72C329.183 151.76 328.756 150.267 328.756 148.24V117.04C328.756 115.333 328.33 114 327.476 113.04C326.623 112.08 325.343 111.6 323.636 111.6H302.516V148.24C302.516 150.267 302.036 151.76 301.076 152.72C300.223 153.573 298.783 154 296.756 154ZM427.331 72.4L419.811 96.72H444.931L437.411 72.4C436.985 71.44 436.505 70.7467 435.971 70.32C435.545 69.8933 435.011 69.68 434.371 69.68H430.371C429.731 69.68 429.145 69.8933 428.611 70.32C428.185 70.7467 427.758 71.44 427.331 72.4ZM418.211 148.24C418.211 150.267 417.731 151.76 416.771 152.72C415.918 153.573 414.478 154 412.451 154H388.931C386.905 154 385.411 153.573 384.451 152.72C383.598 151.76 383.171 150.267 383.171 148.24V106C383.171 102.8 383.651 99.12 384.611 94.96C385.678 90.8 387.278 85.9467 389.411 80.4L403.331 44.08C403.971 42.2667 404.931 40.9333 406.211 40.08C407.598 39.2267 409.358 38.8 411.491 38.8H454.531C456.558 38.8 458.211 39.2267 459.491 40.08C460.878 40.9333 461.891 42.2667 462.531 44.08L476.451 80.4C478.585 85.9467 480.131 90.8 481.091 94.96C482.158 99.12 482.691 102.8 482.691 106V148.24C482.691 150.267 482.211 151.76 481.251 152.72C480.398 153.573 478.958 154 476.931 154H452.771C450.638 154 449.038 153.573 447.971 152.72C447.011 151.76 446.531 150.267 446.531 148.24V125.84H418.211V148.24ZM532.046 154H508.206C506.18 154 504.686 153.573 503.726 152.72C502.873 151.76 502.446 150.267 502.446 148.24V44.56C502.446 42.5333 502.873 41.0933 503.726 40.24C504.686 39.28 506.18 38.8 508.206 38.8H533.966C535.673 38.8 537.06 39.1733 538.126 39.92C539.3 40.6667 540.366 41.8933 541.326 43.6L555.726 69.68C556.26 70.64 556.686 71.3333 557.006 71.76C557.433 72.1867 557.966 72.4 558.606 72.4H560.046C560.686 72.4 561.166 72.1867 561.486 71.76C561.913 71.3333 562.393 70.64 562.926 69.68L577.166 43.6C578.126 41.8933 579.14 40.6667 580.206 39.92C581.38 39.1733 582.82 38.8 584.526 38.8H610.446C612.473 38.8 613.913 39.28 614.766 40.24C615.726 41.0933 616.206 42.5333 616.206 44.56V148.24C616.206 150.267 615.726 151.76 614.766 152.72C613.913 153.573 612.473 154 610.446 154H585.806C583.78 154 582.286 153.573 581.326 152.72C580.473 151.76 580.046 150.267 580.046 148.24V91.92L570.606 109.36C569.646 111.173 568.473 112.507 567.086 113.36C565.806 114.107 564.153 114.48 562.126 114.48H555.726C553.7 114.48 551.993 114.107 550.606 113.36C549.326 112.507 548.206 111.173 547.246 109.36L537.806 91.92V148.24C537.806 150.267 537.326 151.76 536.366 152.72C535.513 153.573 534.073 154 532.046 154ZM679.988 72.4L672.468 96.72H697.588L690.068 72.4C689.641 71.44 689.161 70.7467 688.628 70.32C688.201 69.8933 687.668 69.68 687.028 69.68H683.028C682.388 69.68 681.801 69.8933 681.268 70.32C680.841 70.7467 680.414 71.44 679.988 72.4ZM670.868 148.24C670.868 150.267 670.388 151.76 669.427 152.72C668.574 153.573 667.134 154 665.108 154H641.588C639.561 154 638.068 153.573 637.108 152.72C636.254 151.76 635.828 150.267 635.828 148.24V106C635.828 102.8 636.308 99.12 637.268 94.96C638.334 90.8 639.934 85.9467 642.068 80.4L655.988 44.08C656.628 42.2667 657.588 40.9333 658.868 40.08C660.254 39.2267 662.014 38.8 664.148 38.8H707.188C709.214 38.8 710.868 39.2267 712.148 40.08C713.534 40.9333 714.548 42.2667 715.188 44.08L729.108 80.4C731.241 85.9467 732.788 90.8 733.748 94.96C734.814 99.12 735.348 102.8 735.348 106V148.24C735.348 150.267 734.868 151.76 733.908 152.72C733.054 153.573 731.614 154 729.588 154H705.428C703.294 154 701.694 153.573 700.628 152.72C699.668 151.76 699.188 150.267 699.188 148.24V125.84H670.868V148.24ZM803.096 154H777.176C775.15 154 773.656 153.573 772.696 152.72C771.843 151.76 771.416 150.267 771.416 148.24V69.68H747.896C745.87 69.68 744.376 69.2533 743.416 68.4C742.563 67.44 742.136 65.9467 742.136 63.92V44.56C742.136 42.5333 742.563 41.0933 743.416 40.24C744.376 39.28 745.87 38.8 747.896 38.8H832.376C834.403 38.8 835.843 39.28 836.696 40.24C837.656 41.0933 838.136 42.5333 838.136 44.56V63.92C838.136 65.9467 837.656 67.44 836.696 68.4C835.843 69.2533 834.403 69.68 832.376 69.68H808.856V148.24C808.856 150.267 808.376 151.76 807.416 152.72C806.563 153.573 805.123 154 803.096 154Z" fill="#334747"/>
<path d="M95.06 246.54C95.06 250.833 94.4067 254.753 93.1 258.3C91.8867 261.753 89.6467 264.74 86.38 267.26C83.2067 269.687 78.7733 271.6 73.08 273C67.48 274.4 60.34 275.1 51.66 275.1C42.98 275.1 35.7933 274.4 30.1 273C24.4067 271.6 19.9267 269.687 16.66 267.26C13.4867 264.74 11.2467 261.753 9.94 258.3C8.72667 254.753 8.12 250.833 8.12 246.54V198.8C8.12 194.507 8.72667 190.633 9.94 187.18C11.2467 183.633 13.4867 180.6 16.66 178.08C19.9267 175.56 24.4067 173.6 30.1 172.2C35.7933 170.8 42.98 170.1 51.66 170.1C60.34 170.1 67.48 170.8 73.08 172.2C78.7733 173.6 83.2067 175.56 86.38 178.08C89.6467 180.6 91.8867 183.633 93.1 187.18C94.4067 190.633 95.06 194.507 95.06 198.8V246.54ZM39.9 241.5C39.9 243.367 40.6 244.953 42 246.26C43.4 247.473 46.62 248.08 51.66 248.08C56.7 248.08 59.92 247.473 61.32 246.26C62.72 244.953 63.42 243.367 63.42 241.5V203.84C63.42 202.067 62.72 200.573 61.32 199.36C59.92 198.053 56.7 197.4 51.66 197.4C46.62 197.4 43.4 198.053 42 199.36C40.6 200.573 39.9 202.067 39.9 203.84V241.5ZM163.983 273H141.303C139.529 273 138.223 272.627 137.383 271.88C136.636 271.04 136.263 269.733 136.263 267.96V250.04L114.843 221.34C112.696 218.447 111.249 215.927 110.503 213.78C109.849 211.633 109.523 208.413 109.523 204.12V177.24C109.523 175.467 109.896 174.207 110.643 173.46C111.483 172.62 112.789 172.2 114.563 172.2H136.123C137.896 172.2 139.156 172.62 139.903 173.46C140.743 174.207 141.163 175.467 141.163 177.24V200.2C141.163 201.133 141.209 202.113 141.303 203.14C141.396 204.167 141.769 205.147 142.423 206.08L148.863 216.16C149.329 217 149.796 217.607 150.263 217.98C150.823 218.353 151.476 218.54 152.223 218.54H153.623C154.369 218.54 154.976 218.353 155.443 217.98C156.003 217.607 156.516 217 156.983 216.16L163.423 206.08C164.076 205.147 164.449 204.167 164.543 203.14C164.636 202.113 164.683 201.133 164.683 200.2V177.24C164.683 175.467 165.056 174.207 165.803 173.46C166.643 172.62 167.949 172.2 169.723 172.2H190.583C192.356 172.2 193.616 172.62 194.363 173.46C195.203 174.207 195.623 175.467 195.623 177.24V204.12C195.623 208.413 195.249 211.633 194.503 213.78C193.756 215.927 192.356 218.447 190.303 221.34L169.023 250.18V267.96C169.023 269.733 168.603 271.04 167.763 271.88C167.016 272.627 165.756 273 163.983 273Z" fill="#1A92E9"/>
</svg>
