<svg width="1217" height="320" viewBox="0 0 1217 320" fill="none" xmlns="http://www.w3.org/2000/svg">
<path d="M400.64 154H376.8C374.773 154 373.28 153.573 372.32 152.72C371.467 151.76 371.04 150.267 371.04 148.24V44.56C371.04 42.5333 371.467 41.0933 372.32 40.24C373.28 39.28 374.773 38.8 376.8 38.8H402.56C404.267 38.8 405.653 39.1733 406.72 39.92C407.893 40.6667 408.96 41.8933 409.92 43.6L424.32 69.68C424.853 70.64 425.28 71.3333 425.6 71.76C426.027 72.1867 426.56 72.4 427.2 72.4H428.64C429.28 72.4 429.76 72.1867 430.08 71.76C430.507 71.3333 430.987 70.64 431.52 69.68L445.76 43.6C446.72 41.8933 447.733 40.6667 448.8 39.92C449.973 39.1733 451.413 38.8 453.12 38.8H479.04C481.067 38.8 482.507 39.28 483.36 40.24C484.32 41.0933 484.8 42.5333 484.8 44.56V148.24C484.8 150.267 484.32 151.76 483.36 152.72C482.507 153.573 481.067 154 479.04 154H454.4C452.373 154 450.88 153.573 449.92 152.72C449.067 151.76 448.64 150.267 448.64 148.24V91.92L439.2 109.36C438.24 111.173 437.067 112.507 435.68 113.36C434.4 114.107 432.747 114.48 430.72 114.48H424.32C422.293 114.48 420.587 114.107 419.2 113.36C417.92 112.507 416.8 111.173 415.84 109.36L406.4 91.92V148.24C406.4 150.267 405.92 151.76 404.96 152.72C404.107 153.573 402.667 154 400.64 154ZM604.901 123.76C604.901 128.667 604.155 133.147 602.661 137.2C601.275 141.147 598.715 144.56 594.981 147.44C591.355 150.213 586.341 152.4 579.941 154C573.541 155.6 565.381 156.4 555.461 156.4C545.541 156.4 537.381 155.6 530.981 154C524.581 152.4 519.515 150.213 515.781 147.44C512.155 144.56 509.595 141.147 508.101 137.2C506.715 133.147 506.021 128.667 506.021 123.76V44.56C506.021 42.5333 506.448 41.0933 507.301 40.24C508.261 39.28 509.755 38.8 511.781 38.8H536.901C538.928 38.8 540.368 39.28 541.221 40.24C542.181 41.0933 542.661 42.5333 542.661 44.56V117.52C542.661 119.653 543.461 121.467 545.061 122.96C546.661 124.347 550.235 125.04 555.781 125.04C561.435 125.04 565.061 124.347 566.661 122.96C568.261 121.467 569.061 119.653 569.061 117.52V44.56C569.061 42.5333 569.488 41.0933 570.341 40.24C571.301 39.28 572.795 38.8 574.821 38.8H599.141C601.168 38.8 602.608 39.28 603.461 40.24C604.421 41.0933 604.901 42.5333 604.901 44.56V123.76ZM656.756 154H631.956C629.93 154 628.436 153.573 627.476 152.72C626.623 151.76 626.196 150.267 626.196 148.24V44.56C626.196 42.5333 626.623 41.0933 627.476 40.24C628.436 39.28 629.93 38.8 631.956 38.8H656.756C658.783 38.8 660.223 39.28 661.076 40.24C662.036 41.0933 662.516 42.5333 662.516 44.56V81.36H668.916L685.396 44.08C686.143 42.16 687.156 40.8267 688.436 40.08C689.716 39.2267 691.37 38.8 693.396 38.8H718.036C719.85 38.8 721.076 39.28 721.716 40.24C722.356 41.0933 722.303 42.3733 721.556 44.08L705.236 81.36C711.21 81.68 715.956 83.8133 719.476 87.76C723.103 91.6 724.916 96.72 724.916 103.12V148.24C724.916 150.267 724.436 151.76 723.476 152.72C722.623 153.573 721.183 154 719.156 154H694.516C692.49 154 690.996 153.573 690.036 152.72C689.183 151.76 688.756 150.267 688.756 148.24V117.04C688.756 115.333 688.33 114 687.476 113.04C686.623 112.08 685.343 111.6 683.636 111.6H662.516V148.24C662.516 150.267 662.036 151.76 661.076 152.72C660.223 153.573 658.783 154 656.756 154ZM787.331 72.4L779.811 96.72H804.931L797.411 72.4C796.985 71.44 796.505 70.7467 795.971 70.32C795.545 69.8933 795.011 69.68 794.371 69.68H790.371C789.731 69.68 789.145 69.8933 788.611 70.32C788.185 70.7467 787.758 71.44 787.331 72.4ZM778.211 148.24C778.211 150.267 777.731 151.76 776.771 152.72C775.918 153.573 774.478 154 772.451 154H748.931C746.905 154 745.411 153.573 744.451 152.72C743.598 151.76 743.171 150.267 743.171 148.24V106C743.171 102.8 743.651 99.12 744.611 94.96C745.678 90.8 747.278 85.9467 749.411 80.4L763.331 44.08C763.971 42.2667 764.931 40.9333 766.211 40.08C767.598 39.2267 769.358 38.8 771.491 38.8H814.531C816.558 38.8 818.211 39.2267 819.491 40.08C820.878 40.9333 821.891 42.2667 822.531 44.08L836.451 80.4C838.585 85.9467 840.131 90.8 841.091 94.96C842.158 99.12 842.691 102.8 842.691 106V148.24C842.691 150.267 842.211 151.76 841.251 152.72C840.398 153.573 838.958 154 836.931 154H812.771C810.638 154 809.038 153.573 807.971 152.72C807.011 151.76 806.531 150.267 806.531 148.24V125.84H778.211V148.24ZM892.046 154H868.206C866.18 154 864.686 153.573 863.726 152.72C862.873 151.76 862.446 150.267 862.446 148.24V44.56C862.446 42.5333 862.873 41.0933 863.726 40.24C864.686 39.28 866.18 38.8 868.206 38.8H893.966C895.673 38.8 897.06 39.1733 898.126 39.92C899.3 40.6667 900.366 41.8933 901.326 43.6L915.726 69.68C916.26 70.64 916.686 71.3333 917.006 71.76C917.433 72.1867 917.966 72.4 918.606 72.4H920.046C920.686 72.4 921.166 72.1867 921.486 71.76C921.913 71.3333 922.393 70.64 922.926 69.68L937.166 43.6C938.126 41.8933 939.14 40.6667 940.206 39.92C941.38 39.1733 942.82 38.8 944.526 38.8H970.446C972.473 38.8 973.913 39.28 974.766 40.24C975.726 41.0933 976.206 42.5333 976.206 44.56V148.24C976.206 150.267 975.726 151.76 974.766 152.72C973.913 153.573 972.473 154 970.446 154H945.806C943.78 154 942.286 153.573 941.326 152.72C940.473 151.76 940.046 150.267 940.046 148.24V91.92L930.606 109.36C929.646 111.173 928.473 112.507 927.086 113.36C925.806 114.107 924.153 114.48 922.126 114.48H915.726C913.7 114.48 911.993 114.107 910.606 113.36C909.326 112.507 908.206 111.173 907.246 109.36L897.806 91.92V148.24C897.806 150.267 897.326 151.76 896.366 152.72C895.513 153.573 894.073 154 892.046 154ZM1039.99 72.4L1032.47 96.72H1057.59L1050.07 72.4C1049.64 71.44 1049.16 70.7467 1048.63 70.32C1048.2 69.8933 1047.67 69.68 1047.03 69.68H1043.03C1042.39 69.68 1041.8 69.8933 1041.27 70.32C1040.84 70.7467 1040.41 71.44 1039.99 72.4ZM1030.87 148.24C1030.87 150.267 1030.39 151.76 1029.43 152.72C1028.57 153.573 1027.13 154 1025.11 154H1001.59C999.561 154 998.068 153.573 997.108 152.72C996.254 151.76 995.828 150.267 995.828 148.24V106C995.828 102.8 996.308 99.12 997.268 94.96C998.334 90.8 999.934 85.9467 1002.07 80.4L1015.99 44.08C1016.63 42.2667 1017.59 40.9333 1018.87 40.08C1020.25 39.2267 1022.01 38.8 1024.15 38.8H1067.19C1069.21 38.8 1070.87 39.2267 1072.15 40.08C1073.53 40.9333 1074.55 42.2667 1075.19 44.08L1089.11 80.4C1091.24 85.9467 1092.79 90.8 1093.75 94.96C1094.81 99.12 1095.35 102.8 1095.35 106V148.24C1095.35 150.267 1094.87 151.76 1093.91 152.72C1093.05 153.573 1091.61 154 1089.59 154H1065.43C1063.29 154 1061.69 153.573 1060.63 152.72C1059.67 151.76 1059.19 150.267 1059.19 148.24V125.84H1030.87V148.24ZM1163.1 154H1137.18C1135.15 154 1133.66 153.573 1132.7 152.72C1131.84 151.76 1131.42 150.267 1131.42 148.24V69.68H1107.9C1105.87 69.68 1104.38 69.2533 1103.42 68.4C1102.56 67.44 1102.14 65.9467 1102.14 63.92V44.56C1102.14 42.5333 1102.56 41.0933 1103.42 40.24C1104.38 39.28 1105.87 38.8 1107.9 38.8H1192.38C1194.4 38.8 1195.84 39.28 1196.7 40.24C1197.66 41.0933 1198.14 42.5333 1198.14 44.56V63.92C1198.14 65.9467 1197.66 67.44 1196.7 68.4C1195.84 69.2533 1194.4 69.68 1192.38 69.68H1168.86V148.24C1168.86 150.267 1168.38 151.76 1167.42 152.72C1166.56 153.573 1165.12 154 1163.1 154Z" fill="#334747"/>
<path d="M455.06 246.54C455.06 250.833 454.407 254.753 453.1 258.3C451.887 261.753 449.647 264.74 446.38 267.26C443.207 269.687 438.773 271.6 433.08 273C427.48 274.4 420.34 275.1 411.66 275.1C402.98 275.1 395.793 274.4 390.1 273C384.407 271.6 379.927 269.687 376.66 267.26C373.487 264.74 371.247 261.753 369.94 258.3C368.727 254.753 368.12 250.833 368.12 246.54V198.8C368.12 194.507 368.727 190.633 369.94 187.18C371.247 183.633 373.487 180.6 376.66 178.08C379.927 175.56 384.407 173.6 390.1 172.2C395.793 170.8 402.98 170.1 411.66 170.1C420.34 170.1 427.48 170.8 433.08 172.2C438.773 173.6 443.207 175.56 446.38 178.08C449.647 180.6 451.887 183.633 453.1 187.18C454.407 190.633 455.06 194.507 455.06 198.8V246.54ZM399.9 241.5C399.9 243.367 400.6 244.953 402 246.26C403.4 247.473 406.62 248.08 411.66 248.08C416.7 248.08 419.92 247.473 421.32 246.26C422.72 244.953 423.42 243.367 423.42 241.5V203.84C423.42 202.067 422.72 200.573 421.32 199.36C419.92 198.053 416.7 197.4 411.66 197.4C406.62 197.4 403.4 198.053 402 199.36C400.6 200.573 399.9 202.067 399.9 203.84V241.5ZM523.983 273H501.303C499.529 273 498.223 272.627 497.383 271.88C496.636 271.04 496.263 269.733 496.263 267.96V250.04L474.843 221.34C472.696 218.447 471.249 215.927 470.503 213.78C469.849 211.633 469.523 208.413 469.523 204.12V177.24C469.523 175.467 469.896 174.207 470.643 173.46C471.483 172.62 472.789 172.2 474.563 172.2H496.123C497.896 172.2 499.156 172.62 499.903 173.46C500.743 174.207 501.163 175.467 501.163 177.24V200.2C501.163 201.133 501.209 202.113 501.303 203.14C501.396 204.167 501.769 205.147 502.423 206.08L508.863 216.16C509.329 217 509.796 217.607 510.263 217.98C510.823 218.353 511.476 218.54 512.223 218.54H513.623C514.369 218.54 514.976 218.353 515.443 217.98C516.003 217.607 516.516 217 516.983 216.16L523.423 206.08C524.076 205.147 524.449 204.167 524.543 203.14C524.636 202.113 524.683 201.133 524.683 200.2V177.24C524.683 175.467 525.056 174.207 525.803 173.46C526.643 172.62 527.949 172.2 529.723 172.2H550.583C552.356 172.2 553.616 172.62 554.363 173.46C555.203 174.207 555.623 175.467 555.623 177.24V204.12C555.623 208.413 555.249 211.633 554.503 213.78C553.756 215.927 552.356 218.447 550.303 221.34L529.023 250.18V267.96C529.023 269.733 528.603 271.04 527.763 271.88C527.016 272.627 525.756 273 523.983 273Z" fill="#1A92E9"/>
<g clip-path="url(#clip0)">
<path d="M258.171 228.112C258.206 223.576 256.19 219.281 252.441 216.015C248.693 212.779 243.671 210.994 238.366 210.994H19.1683V244.898H237.977C249.011 244.898 258.065 237.367 258.171 228.112Z" fill="#1A92E9"/>
<path d="M8.84146 272.117H237.835C266.376 272.117 289.894 252.489 290 228.082C290.071 203.675 266.871 183.775 238.366 183.775H8.84146C3.96098 183.775 0 187.162 0 191.336V194.36C0 198.534 3.96098 201.921 8.84146 201.921H238.366C248.091 201.921 256.791 205.853 262.344 211.962C266.447 216.438 268.851 222.094 268.781 228.203C268.71 234.1 266.305 239.514 262.344 243.839C256.685 250.009 247.809 253.971 237.977 253.971H8.84146C3.96098 253.971 0 257.358 0 261.532V264.556C0 268.73 3.96098 272.117 8.84146 272.117Z" fill="#1A92E9"/>
<path d="M106.522 174.702C107.901 174.823 160.172 174.823 161.551 174.702C185.388 172.434 204.061 150.99 204.061 124.86C204.061 97.2171 183.16 74.8063 157.378 74.8063C151.861 74.8063 146.556 75.8346 141.64 77.7098C140.049 78.3146 138.387 78.7381 136.689 78.9498C136.654 77.8912 136.689 76.7722 136.83 75.502C137.644 66.5195 143.514 57.5976 152.321 52.6073C154.69 51.2463 155.716 48.5849 154.23 46.4073C152.851 44.381 149.385 43.4132 146.98 44.7741C134.142 52.0629 126.398 64.6444 126.185 77.619C121.34 75.8044 116.141 74.8063 110.73 74.8063C84.9488 74.8063 64.0472 97.2171 64.0472 124.86C64.0122 150.99 82.6854 172.434 106.522 174.702Z" fill="#1A92E9"/>
<path d="M113.418 69.7251C117.91 70.1485 121.765 66.9124 121.234 63.0714C120.067 54.0587 113.984 39.209 87.1768 35.9426C82.65 35.3982 78.689 38.6343 79.1488 42.5358C80.2451 51.7904 86.222 67.0938 113.418 69.7251Z" fill="#1A92E9"/>
</g>
<defs>
<clipPath id="clip0">
<rect width="290" height="248" fill="white" transform="translate(0 30)"/>
</clipPath>
</defs>
</svg>
